# xmcd
#
# Track frame offsets: 
#        150
#        15595
#        30085
#        45307
#        60697
#        74900
#        93482
#        109087
#        124725
#        140900
#
# Disc length: 2077 seconds
#
# Revision: 1
# Processed by: cddbd v1.5.2PL0 Copyright (c) Steve Scherf et al.
# Submitted via: ExactAudioCopy v0.95b4
#
DISCID=88081b0a
DTITLE=Super Chikan - What You See
DYEAR=2000
DGENRE=Blues/Soul
TTITLE0=What You See
TTITLE1=Ain't Nobody
TTITLE2=El Camino
TTITLE3=Okie Doak
TTITLE4=Good Thing
TTITLE5=You Said
TTITLE6=Willie Brown Jr.
TTITLE7=Blank Trip
TTITLE8=Big Boy Now
TTITLE9=Fighting Cock
EXTD=All songs by James Johnson, except track 9 by Jack Johnson.\nJame
EXTD=s "Super Chikan" Johnson (b.1951): vocals, guitar, keyboards\nHar
EXTD=vell Thomas: bass\nDion Thomas: drums\nAdditional musicians: Cary
EXTD=Hudson, Bryan Barry, Bob Egan, Miro Farracci\nRecorded and mixed b
EXTD=y Bruce Watson at The Money Shot.\nProduced by Matthew Johnson and 
EXTD=Bruce Watson.\nCD: Epitaph/Fat Possum 80329 (2000-01-25), UPC 045
EXTD=778032921.
EXTT0=(James Johnson)
EXTT1=(James Johnson)
EXTT2=(James Johnson)
EXTT3=(James Johnson)
EXTT4=(James Johnson)
EXTT5=(James Johnson)
EXTT6=(James Johnson)
EXTT7=(James Johnson)
EXTT8=(Jack Johnson)
EXTT9=(James Johnson)
PLAYORDER=
